HIERARCHY
ROOT Hips
{
	OFFSET -3.958830 18.904000 13.208200
	CHANNELS 6 Xposition Yposition Zposition Zrotation Yrotation Xrotation 
	JOINT LHipJoint
	{
		OFFSET 0.000000 0.000000 0.000000
		CHANNELS 3 Zrotation Yrotation Xrotation
		JOINT LeftUpLeg
		{
			OFFSET 1.800000 -1.400000 0.085000
			CHANNELS 3 Zrotation Yrotation Xrotation
			JOINT LeftLeg
			{
				OFFSET 2.215000 -6.000000 0.000000
				CHANNELS 3 Zrotation Yrotation Xrotation
				JOINT LeftFoot
				{
					OFFSET 2.500000 -6.900000 0.000000
					CHANNELS 3 Zrotation Yrotation Xrotation
					JOINT LeftToeBase
					{
						OFFSET 0.200000 -0.500000 1.950000
						CHANNELS 3 Zrotation Yrotation Xrotation
						End Site
						{
							OFFSET 0.000000 0.000000 0.000000
						}
					}
				}
			}
		}
	}
	JOINT RHipJoint
	{
		OFFSET 0.000000 0.000000 0.000000
		CHANNELS 3 Zrotation Yrotation Xrotation
		JOINT RightUpLeg
		{
			OFFSET -1.800000 -1.400000 0.085000
			CHANNELS 3 Zrotation Yrotation Xrotation
			JOINT RightLeg
			{
				OFFSET -2.215000 -6.000000 0.000000
				CHANNELS 3 Zrotation Yrotation Xrotation
				JOINT RightFoot
				{
					OFFSET -2.500000 -6.900000 0.000000
					CHANNELS 3 Zrotation Yrotation Xrotation
					JOINT RightToeBase
					{
						OFFSET -0.200000 -0.500000 1.950000
						CHANNELS 3 Zrotation Yrotation Xrotation
						End Site
						{
							OFFSET 0.000000 0.000000 0.000000
						}
					}
				}
			}
		}
	}
	JOINT LowerBack
	{
		OFFSET 0.000000 0.000000 0.000000
		CHANNELS 3 Zrotation Yrotation Xrotation
		JOINT Spine
		{
			OFFSET -0.087000 1.940000 -0.288900
			CHANNELS 3 Zrotation Yrotation Xrotation
			JOINT Spine1
			{
				OFFSET 0.000000 1.950000 0.060000
				CHANNELS 3 Zrotation Yrotation Xrotation
				JOINT Neck
				{
					OFFSET 0.000000 0.000000 0.000000
					CHANNELS 3 Zrotation Yrotation Xrotation
					JOINT Neck1
					{
						OFFSET 0.000000 1.600000 0.340000
						CHANNELS 3 Zrotation Yrotation Xrotation
						JOINT Head
						{
							OFFSET 0.000000 1.667000 -0.240000
							CHANNELS 3 Zrotation Yrotation Xrotation
							End Site
							{
								OFFSET 0.000000 0.000000 0.000000
							}
						}
					}
				}
				JOINT LeftShoulder
				{
					OFFSET 0.000000 0.000000 0.000000
					CHANNELS 3 Zrotation Yrotation Xrotation
					JOINT LeftArm
					{
						OFFSET 2.700000 1.550000 -0.730000
						CHANNELS 3 Zrotation Yrotation Xrotation
						JOINT LeftForeArm
						{
							OFFSET 5.450000 0.000000 0.000000
							CHANNELS 3 Zrotation Yrotation Xrotation
							JOINT LeftHand
							{
								OFFSET 3.450000 0.000000 0.000000
								CHANNELS 3 Zrotation Yrotation Xrotation
								JOINT LeftHandIndex1
								{
									OFFSET 0.750000 0.000000 0.000000
									CHANNELS 3 Zrotation Yrotation Xrotation
									End Site
									{
										OFFSET 0.000000 0.000000 0.000000
									}
								}
							}
						}
					}
				}
				JOINT RightShoulder
				{
					OFFSET 0.000000 0.000000 0.000000
					CHANNELS 3 Zrotation Yrotation Xrotation
					JOINT RightArm
					{
						OFFSET -2.700000 1.550000 -0.730000
						CHANNELS 3 Zrotation Yrotation Xrotation
						JOINT RightForeArm
						{
							OFFSET -5.450000 0.000000 0.000000
							CHANNELS 3 Zrotation Yrotation Xrotation
							JOINT RightHand
							{
								OFFSET -3.450000 0.000000 0.000000
								CHANNELS 3 Zrotation Yrotation Xrotation
								JOINT RightHandIndex1
								{
									OFFSET -0.750000 0.000000 0.000000
									CHANNELS 3 Zrotation Yrotation Xrotation
									End Site
									{
										OFFSET 0.000000 0.000000 0.000000
									}
								}
							}
						}
					}
				}
			}
		}
	}
}
MOTION
Frames: 12
Frame Time: 0.016667
0.013780 16.907520 -0.741040 -2.208345 -7.108257 4.710878 -14.916202 12.767650 2.685537 3.756934 -1.471837 -11.260159 -8.597695 5.907822 11.901714 -0.062087 3.987243 3.364004 0.259660 -0.101300 0.400230 18.532158 -11.461243 2.636801 -3.778612 0.871023 -14.261088 8.541656 -5.996128 16.072272 -0.057744 -3.874852 3.074814 -0.050790 0.278000 0.352300 -4.222811 0.298104 -6.609488 10.091870 1.160805 1.477076 -4.396144 0.575363 4.014008 3.758980 4.700736 -6.327309 7.531875 -4.785279 28.770216 -4.703700 0.968310 4.849380 -21.842592 -3.210917 2.142236 -54.027080 -5.737083 -3.020020 -26.253440 -24.157113 3.696907 -3.968633 3.374096 -0.001270 0.351950 -0.186550 0.122580 14.489318 -0.118070 2.099212 66.110459 1.888326 -5.415093 6.883386 10.757385 -0.930379 2.600079 -1.626391 -0.014390 -0.182600 -0.170120 -0.093270 
0.015160 16.909920 -0.739670 -2.228365 -7.080009 4.634189 -14.914645 12.777263 2.688305 3.738022 -1.451483 -11.141799 -8.559016 5.890518 11.829759 -0.043934 3.973870 3.368036 0.260050 -0.101570 0.399900 18.531786 -11.463256 2.637763 -3.764477 0.836697 -14.149882 8.488625 -5.980805 15.998054 -0.061192 -3.868633 3.078817 -0.060250 0.270820 0.357010 -4.223856 0.282485 -6.620051 10.110141 1.131579 1.486017 -4.335587 0.548663 4.071929 3.690140 4.633997 -6.433557 7.354100 -4.879478 29.173443 -4.769310 0.868090 5.112860 -21.654866 -3.365405 2.261098 -54.170232 -5.804252 -3.019105 -26.696086 -24.648241 3.895766 -3.957838 3.389009 -0.004530 0.346890 -0.180360 0.124370 14.424203 0.098875 2.196810 66.081033 1.842415 -5.414343 6.783378 10.652527 -0.917488 2.609552 -1.629058 -0.002120 -0.193310 -0.174850 -0.088150 
0.019000 16.914300 -0.737800 -2.300061 -7.043581 4.519501 -14.908734 12.793077 2.688639 3.751677 -1.427539 -11.006592 -8.462608 5.864079 11.777863 -0.011356 3.949348 3.378188 0.263510 -0.097410 0.401200 18.534203 -11.465455 2.643711 -3.733809 0.785532 -13.986753 8.504183 -5.982020 15.889384 -0.068896 -3.866357 3.084262 -0.073670 0.260400 0.363690 -4.235107 0.257758 -6.637346 10.243331 1.076022 1.496510 -4.248082 0.498287 4.191667 3.557517 4.450270 -6.598005 6.920026 -5.041358 29.849479 -4.944470 0.691810 5.597620 -21.313878 -3.601198 2.441659 -54.431016 -6.017974 -2.965274 -27.494547 -25.593225 4.289501 -3.938696 3.413655 -0.012860 0.339590 -0.169700 0.131100 14.313594 0.482906 2.356475 65.970097 1.795938 -5.367381 6.560964 10.400627 -0.899094 2.627799 -1.636162 0.018840 -0.209110 -0.187810 -0.077190 
0.021860 16.919080 -0.737130 -2.272348 -7.053391 4.375955 -14.910714 12.817983 2.695030 3.687975 -1.402501 -10.854020 -8.377126 5.841598 11.724581 0.017257 3.927618 3.385351 0.263480 -0.097930 0.406020 18.528466 -11.459378 2.644669 -3.802789 0.714757 -13.779285 8.517144 -5.975052 15.709277 -0.074885 -3.858269 3.088487 -0.087470 0.244110 0.366680 -4.222516 0.196623 -6.656542 10.151507 1.052127 1.521591 -4.043240 0.492453 4.372436 3.370228 4.177293 -6.789344 6.270921 -5.280749 30.686364 -5.346050 0.517410 6.091590 -20.890684 -3.863852 2.629839 -54.667979 -6.364937 -2.858792 -28.561632 -26.977874 4.868398 -3.917005 3.436802 -0.017630 0.329200 -0.157650 0.132260 14.242672 0.975772 2.567219 65.835592 1.670718 -5.388321 6.238534 10.247426 -0.887245 2.645782 -1.638462 0.035800 -0.223770 -0.198450 -0.070900 
0.025580 16.924650 -0.737410 -2.305468 -7.131062 4.206840 -14.907145 12.852812 2.702921 3.678243 -1.372215 -10.674358 -8.285000 5.824790 11.681827 0.037003 3.910500 3.388156 0.265180 -0.096310 0.414810 18.527303 -11.452353 2.644994 -3.779789 0.646926 -13.559147 8.383784 -5.935637 15.584526 -0.080189 -3.834664 3.097263 -0.097860 0.224110 0.362760 -4.223613 0.114767 -6.679898 10.252637 0.988572 1.593479 -3.949231 0.469804 4.589594 3.148438 3.717151 -6.959575 5.245661 -5.389120 31.715711 -5.744930 0.354090 6.391280 -20.494388 -4.105762 2.782024 -54.753300 -6.822064 -2.676210 -29.865177 -28.664048 5.617741 -3.890948 3.453572 -0.014780 0.313330 -0.144350 0.129000 14.246873 1.549478 2.786381 65.626494 1.580840 -5.383188 5.839573 10.039236 -0.870761 2.662825 -1.631877 0.047660 -0.231130 -0.206680 -0.068890 
0.029830 16.928300 -0.737450 -2.357146 -7.266776 4.094762 -14.902523 12.887441 2.710479 3.678390 -1.350439 -10.556346 -8.231683 5.823941 11.669794 0.049310 3.909918 3.389907 0.258960 -0.103570 0.419140 18.528746 -11.437638 2.644227 -3.733534 0.594592 -13.395560 8.259838 -5.897683 15.469055 -0.080016 -3.812461 3.107829 -0.107470 0.214700 0.357560 -4.230486 0.019412 -6.696531 10.456741 0.903525 1.629077 -3.990302 0.440296 4.829097 2.938038 3.067691 -7.080378 3.880805 -5.401207 32.538728 -6.388090 0.298920 6.720130 -20.028314 -4.202611 2.854678 -54.828953 -7.390785 -2.390809 -31.203973 -30.413436 6.451115 -3.877102 3.462449 -0.014090 0.306330 -0.138080 0.125660 14.142119 2.090720 2.994709 65.524872 1.537248 -5.346714 5.511834 9.760442 -0.853623 2.675168 -1.623292 0.050360 -0.230120 -0.208850 -0.068500 
0.033040 16.930320 -0.736980 -2.346056 -7.376311 4.008300 -14.905490 12.928463 2.722965 3.680252 -1.341445 -10.477001 -8.278323 5.852683 11.681302 0.053056 3.935222 3.385947 0.250910 -0.118610 0.423970 18.523972 -11.407386 2.637287 -3.744750 0.547416 -13.255530 8.167485 -5.870921 15.343193 -0.076085 -3.794197 3.119887 -0.117590 0.214440 0.354450 -4.218341 -0.119453 -6.709451 10.546527 0.766008 1.667006 -4.051775 0.369553 5.047815 2.714356 2.299045 -7.156587 2.299418 -5.287727 33.155752 -7.100650 0.323470 7.001460 -19.585474 -4.171212 2.859058 -54.765364 -7.985417 -2.043721 -32.608993 -32.297260 7.396552 -3.872309 3.467885 -0.009990 0.306470 -0.138730 0.121320 14.092475 2.566301 3.180297 65.368935 1.450865 -5.344245 5.249298 9.541499 -0.842149 2.678882 -1.612435 0.046090 -0.224400 -0.205370 -0.072250 
0.035430 16.931500 -0.735740 -2.313442 -7.517910 3.923604 -14.909449 12.982628 2.737194 3.640864 -1.328241 -10.379580 -8.258985 5.865420 11.702925 0.057655 3.952043 3.386632 0.251180 -0.124060 0.428280 18.517551 -11.373469 2.625295 -3.754896 0.510701 -13.175074 8.026977 -5.850752 15.391627 -0.075111 -3.777921 3.129741 -0.121750 0.213260 0.349320 -4.202013 -0.290308 -6.719234 10.640841 0.604323 1.730069 -4.150024 0.292558 5.230544 2.435241 1.320629 -7.223093 0.329235 -4.984976 33.690156 -7.616650 0.296090 7.208890 -19.086009 -4.014020 2.803111 -54.699689 -8.668382 -1.608794 -33.934025 -34.101597 8.367814 -3.858851 3.478034 -0.003840 0.301640 -0.137630 0.124220 14.084876 3.060291 3.387912 65.108999 1.292803 -5.385961 5.119174 9.405062 -0.834079 2.682537 -1.606604 0.042420 -0.217710 -0.208230 -0.073180 
0.039290 16.934100 -0.734230 -2.298084 -7.549575 3.817395 -14.915325 13.046746 2.750500 3.588809 -1.308984 -10.273555 -8.155507 5.848737 11.682552 0.056701 3.953312 3.385318 0.253330 -0.120880 0.431670 18.509072 -11.328279 2.614372 -3.841514 0.459890 -13.049737 8.075053 -5.882524 15.424297 -0.079900 -3.770681 3.130521 -0.121030 0.205330 0.341750 -4.181798 -0.499397 -6.731862 10.782867 0.390170 1.848149 -4.303843 0.178069 5.394772 2.152013 0.239778 -7.297556 -1.860867 -4.552556 34.206329 -8.031600 0.272240 7.094060 -18.671105 -3.863408 2.704130 -54.480258 -9.436777 -1.095903 -35.281136 -35.756642 9.366465 -3.842574 3.485682 0.005520 0.290170 -0.130610 0.122500 14.163582 3.600071 3.635513 64.722035 1.030835 -5.491588 5.105841 9.353758 -0.823810 2.685776 -1.593738 0.040700 -0.208910 -0.208000 -0.073850 
0.042150 16.936190 -0.732060 -2.198295 -7.461322 3.752102 -14.932914 13.112028 2.769624 3.533215 -1.304264 -10.221239 -8.211044 5.870324 11.654318 0.049734 3.982190 3.377091 0.250540 -0.126260 0.430670 18.491888 -11.265413 2.594523 -3.997652 0.405190 -12.929834 8.150672 -5.915578 15.399054 -0.078622 -3.766495 3.132424 -0.119440 0.207140 0.334740 -4.134162 -0.748760 -6.736484 10.711940 0.137146 1.938335 -4.390694 0.023483 5.509753 1.842047 -0.891642 -7.332075 -4.126281 -4.041373 34.388868 -8.419720 0.285220 6.986470 -18.119264 -3.507980 2.529278 -54.393395 -10.333907 -0.442290 -36.498987 -37.303918 10.358302 -3.837101 3.489233 0.014700 0.286430 -0.132060 0.119890 14.176043 3.955740 3.833407 64.371398 0.722516 -5.613905 5.121363 9.284008 -0.820883 2.682928 -1.579668 0.031250 -0.196180 -0.201400 -0.077140 
0.044850 16.938850 -0.729450 -2.102352 -7.378929 3.726172 -14.952019 13.181163 2.785581 3.436551 -1.290861 -10.181686 -8.171529 5.864153 11.568773 0.033776 4.007081 3.377968 0.232310 -0.145770 0.416350 18.474904 -11.198514 2.573596 -4.090707 0.362579 -12.846994 8.160878 -5.928264 15.379732 -0.066891 -3.756331 3.144810 -0.120880 0.227270 0.318840 -4.084893 -1.009915 -6.732529 10.647804 -0.128163 2.022349 -4.539496 -0.136876 5.541090 1.528426 -2.058195 -7.351733 -6.420189 -3.381543 34.295018 -8.707540 0.398090 6.980950 -17.616743 -3.055093 2.314127 -54.235050 -11.218487 0.270558 -37.641386 -38.748690 11.351746 -3.844381 3.477933 0.020900 0.292260 -0.146420 0.117090 14.241104 4.218733 4.011067 63.981319 0.365282 -5.750207 5.128583 9.232065 -0.824187 2.674827 -1.555726 0.008140 -0.168360 -0.184530 -0.079730 
0.047540 16.941520 -0.727290 -1.967474 -7.319279 3.680351 -14.972519 13.250219 2.806239 3.315482 -1.282722 -10.122599 -8.198692 5.869229 11.490962 0.023457 4.024634 3.371206 0.238400 -0.141020 0.427900 18.457081 -11.126598 2.551988 -4.194578 0.318820 -12.729484 8.153785 -5.918408 15.303432 -0.068371 -3.730744 3.150719 -0.114310 0.222480 0.309080 -4.032330 -1.282090 -6.730679 10.562438 -0.403143 2.151874 -4.801477 -0.293710 5.569777 1.248478 -3.262911 -7.412176 -8.828036 -2.609941 34.200029 -8.976830 0.621170 6.507600 -17.052903 -2.570008 2.117318 -54.010088 -12.094173 0.985689 -38.896721 -40.278360 12.453992 -3.834058 3.478828 0.035120 0.282040 -0.141910 0.111630 14.177930 4.475873 4.188917 63.825428 0.057838 -5.914908 5.058076 9.228308 -0.834483 2.673250 -1.537267 -0.000480 -0.152310 -0.181970 -0.086260 
